# xmcd
#
# Track frame offsets:
#  150
#  23892
#  50610
#  80227
#  112525
#  141760
#  168330
#  185572
#  212900
#  236307
#  270732
#  294497
#  315782
#
# Disc length: 4535 seconds
#
# Revision: 0
# Processed by: cddbd v1.4b41PL3 Copyright (c) Steve Scherf et al.
# Submitted via: AltoMP3 Maker 3.0
#
DISCID=af11b50d
DTITLE=Amon Tobin - Permutation
DYEAR=1900
DGENRE=
TTITLE0=Like Regular Chickens
TTITLE1=Bridge
TTITLE2=Reanimator
TTITLE3=Sordid
TTITLE4=Nightlife
TTITLE5=Escape
TTITLE6=Switch
TTITLE7=People Like Frank
TTITLE8=Sultan Drops
TTITLE9=Fast Eddie
TTITLE10=Toys
TTITLE11=Nova
TTITLE12=Melody Infringement
EXTD=
EXTT0=
EXTT1=
EXTT2=
EXTT3=
EXTT4=
EXTT5=
EXTT6=
EXTT7=
EXTT8=
EXTT9=
EXTT10=
EXTT11=
EXTT12=
PLAYORDER=
